<?xml version="1.0" encoding="UTF-8"?>
<svg version="1.1" xmlns="http://www.w3.org/2000/svg" width="1080" height="1080">
<path d="M0 0 C356.4 0 712.8 0 1080 0 C1080 356.4 1080 712.8 1080 1080 C723.6 1080 367.2 1080 0 1080 C0 723.6 0 367.2 0 0 Z " fill="#000000" transform="translate(0,0)"/>
<path d="M0 0 C0.84240234 -0.00773437 1.68480469 -0.01546875 2.55273438 -0.0234375 C15.6501694 0.01689332 26.55464226 4.2667515 36.21875 13.27734375 C46.51800015 24.29666859 50.73501335 36.62425113 50.49609375 51.4765625 C50.06172209 59.1806929 47.02282177 66.21042531 44.0625 73.25 C43.4025 73.25 42.7425 73.25 42.0625 73.25 C41.81113281 73.98476563 41.55976563 74.71953125 41.30078125 75.4765625 C37.14242397 84.79023337 27.10935548 90.48350461 18.0625 94.25 C16.7425 94.25 15.4225 94.25 14.0625 94.25 C14.12990714 100.76077713 14.21986931 107.27097286 14.32495117 113.78125 C14.35804802 115.99244254 14.38612656 118.20371647 14.40893555 120.41503906 C14.44276297 123.60777218 14.49509209 126.79976958 14.55078125 129.9921875 C14.55717117 130.96864227 14.5635611 131.94509705 14.57014465 132.95114136 C14.84856502 146.17607355 19.76471077 157.74089737 29.0625 167.25 C39.63882231 176.29553881 52.30419329 179.34544027 65.99560547 179.45532227 C66.7670137 179.46522186 67.53842194 179.47512146 68.33320618 179.48532104 C70.86533614 179.51673314 73.39748482 179.54161261 75.9296875 179.56640625 C77.69231637 179.58699333 79.45494049 179.60799025 81.21755981 179.62937927 C85.84362941 179.68441883 90.46974221 179.73390757 95.09588623 179.78222656 C99.8217755 179.83257433 104.54760248 179.88819092 109.2734375 179.94335938 C118.53640504 180.05071918 127.7994268 180.15221287 137.0625 180.25 C137.03744385 179.16050049 137.0123877 178.07100098 136.98657227 176.94848633 C137.18015218 167.51909065 144.53669525 158.94986881 150.8125 152.3984375 C156.85421974 146.62943427 163.39472575 142.56709356 171.0625 139.25 C171.90425781 138.88132812 172.74601563 138.51265625 173.61328125 138.1328125 C187.74853072 134.51495703 205.16795176 135.9272337 217.99609375 142.828125 C220.79621271 144.5150352 223.4288818 146.31509683 226.0625 148.25 C227.12404297 149.00023437 227.12404297 149.00023437 228.20703125 149.765625 C232.62078248 153.21305199 235.82244175 157.37872536 238.9375 162 C239.31922363 162.54793213 239.70094727 163.09586426 240.09423828 163.66040039 C242.45088149 167.34908237 243.45439826 170.66902414 244.18017578 174.99316406 C244.43312912 176.4719101 244.43312912 176.4719101 244.69119263 177.98052979 C244.81372406 178.72945496 244.93625549 179.47838013 245.0625 180.25 C255.52966335 180.21178076 265.99647352 180.15218513 276.46335888 180.06609726 C281.3247878 180.02676766 286.18603951 179.99450852 291.04760742 179.97900391 C295.74869743 179.96374101 300.44929978 179.92912715 305.15017128 179.88169098 C306.934052 179.86697576 308.71800238 179.85896472 310.50194359 179.85811615 C325.46714051 179.84385253 342.03070015 178.29795691 353.24609375 167.0625 C355.0625 165.25 355.0625 165.25 357.0625 165.25 C357.33191406 164.693125 357.60132813 164.13625 357.87890625 163.5625 C358.69194679 161.97398515 359.55753092 160.41161894 360.46484375 158.875 C361.22474609 157.575625 361.22474609 157.575625 362 156.25 C362.50402344 155.404375 363.00804687 154.55875 363.52734375 153.6875 C368.9942944 141.44598201 368.42139082 129.12702759 368.25 116 C368.23492419 113.98308292 368.22124091 111.96615493 368.20898438 109.94921875 C368.17621241 105.04920572 368.12459036 100.14972564 368.0625 95.25 C367.06017334 94.8636438 367.06017334 94.8636438 366.03759766 94.46948242 C365.15120605 94.12248291 364.26481445 93.7754834 363.3515625 93.41796875 C362.47709473 93.07789795 361.60262695 92.73782715 360.70166016 92.38745117 C346.91592781 86.44594081 339.91819526 75.45501715 334.0625 62.25 C330.9023051 52.76941531 331.46334144 38.57515079 335.1875 29.3125 C337.63803506 24.56286744 340.53164587 20.25917181 344.0625 16.25 C344.58585937 15.64542969 345.10921875 15.04085938 345.6484375 14.41796875 C354.57890055 4.79570927 365.57503578 0.33780962 378.54321289 -0.15234375 C391.41929869 -0.34647592 402.78277592 2.05094151 413.0625 10.25 C413.98095703 10.92675781 413.98095703 10.92675781 414.91796875 11.6171875 C424.30982481 18.95651873 429.01312986 28.64910115 431.0625 40.25 C432.31046773 54.07691515 430.11217214 65.86942904 422.0625 77.25 C421.40121094 78.20519531 421.40121094 78.20519531 420.7265625 79.1796875 C414.51312305 87.26075036 404.63016477 92.23553028 395.0625 95.25 C394.4025 95.25 393.7425 95.25 393.0625 95.25 C393.07360306 95.88432449 393.08470612 96.51864899 393.09614563 97.17219543 C393.20819462 103.87384717 393.28275945 110.57522609 393.3371582 117.27758789 C393.36204707 119.76695593 393.3959708 122.25625291 393.43969727 124.74536133 C393.86266129 149.47134069 391.73971993 168.36401521 374.3125 186.96875 C360.50344641 200.969596 344.82306208 207.31702581 325.11962891 207.45532227 C324.2409314 207.46522186 323.36223389 207.47512146 322.45690918 207.48532104 C319.56765387 207.51677638 316.67838215 207.54163003 313.7890625 207.56640625 C311.77981146 207.58698958 309.77056461 207.60798641 307.76132202 207.62937927 C302.48422656 207.68445754 297.20709294 207.73392942 291.92993164 207.78222656 C286.54049298 207.83254585 281.15110943 207.88817739 275.76171875 207.94335938 C265.19535963 208.05076662 254.62895257 208.15225002 244.0625 208.25 C243.59924316 209.20479248 243.13598633 210.15958496 242.65869141 211.14331055 C242.0357466 212.41207667 241.41252209 213.6807055 240.7890625 214.94921875 C240.48556885 215.57662964 240.1820752 216.20404053 239.86938477 216.85046387 C234.23999524 228.25463775 224.3608695 236.83468466 212.6171875 241.66796875 C206.81273363 243.53320509 201.14312195 244.86392877 195.0625 245.25 C193.78052734 245.34474609 193.78052734 245.34474609 192.47265625 245.44140625 C177.68970755 246.05653566 164.7983464 241.8182534 153.63671875 232.1484375 C146.27451631 225.14506509 140.75132551 218.09966816 138.0625 208.25 C136.36479713 208.24453156 136.36479713 208.24453156 134.63279724 208.23895264 C123.90923193 208.20183484 113.18594934 208.14388072 102.46259975 208.06609726 C96.95104813 208.02677258 91.4396527 207.99451095 85.92797852 207.97900391 C80.59797328 207.9637379 75.26839789 207.92911821 69.93858528 207.88169098 C67.91631899 207.86697901 65.8939913 207.85896491 63.87167168 207.85811615 C42.02666677 207.8397458 23.83069604 203.83492555 7.71484375 187.93359375 C-6.50956093 172.75931229 -11.32075473 155.83532424 -11.1328125 135.36328125 C-11.1299826 134.18025925 -11.12715271 132.99723724 -11.12423706 131.77836609 C-11.113138 128.03963645 -11.08805275 124.30115592 -11.0625 120.5625 C-11.05245692 118.01107119 -11.0433334 115.45963859 -11.03515625 112.90820312 C-11.01323241 106.68871863 -10.97985867 100.46937712 -10.9375 94.25 C-12.19973389 94.1053833 -13.46196777 93.9607666 -14.76245117 93.81176758 C-24.9734038 92.641878 -32.1736905 85.88464152 -38.55078125 78.34765625 C-48.13984086 65.90228101 -49.08200051 52.42212194 -47.9375 37.25 C-45.78351779 24.38063796 -37.02554332 14.97957585 -26.9375 7.25 C-18.34884824 1.49003389 -10.18518831 -0.09308626 0 0 Z " fill="#E3E4E3" transform="translate(348.9375,388.75)"/>
<path d="M0 0 C4.74909584 3.34011452 7.53558338 7.33738843 10.3125 12.375 C11.240625 14.0146875 11.240625 14.0146875 12.1875 15.6875 C14.6420775 23.73305957 14.07591173 31.44181483 10.5625 39.06640625 C5.77863282 47.90161095 -0.72206835 53.78622777 -10 57.8125 C-20.79041471 59.45849546 -29.9534277 59.02107261 -39.09375 52.71484375 C-45.70093034 47.35201571 -51.15377268 39.91769624 -52.6875 31.375 C-53.66843361 20.40784062 -51.64849263 12.58383425 -44.625 4.0625 C-32.288051 -8.67565059 -14.73459094 -8.79677071 0 0 Z " fill="#030303" transform="translate(559.6875,553.625)"/>
<path d="M0 0 C10.11873153 -0.38204488 17.60038874 0.87948399 25.18359375 7.86328125 C31.98351792 15.37898691 33.62102051 22.25946524 33.31640625 32.3828125 C32.15815086 41.03408931 27.9667434 48.40078943 21.0703125 53.7734375 C13.92561593 58.20339617 6.18971142 60.46009154 -2.19140625 59.17578125 C-10.65131459 56.99964045 -16.99323833 52.71335283 -22.01953125 45.58203125 C-26.58704944 37.64223328 -27.58902051 30.20283772 -26.19140625 21.17578125 C-23.46909131 12.15415617 -18.29454866 5.93849781 -10.19140625 1.17578125 C-6.68358206 0.09645073 -3.6385052 0.20040726 0 0 Z " fill="#020202" transform="translate(346.19140625,407.82421875)"/>
<path d="M0 0 C7.71358025 5.31484493 11.95932164 10.43655867 14.921875 19.32421875 C15.54439133 29.12885094 14.3482816 38.05757523 7.859375 45.76171875 C0.6969985 52.87825604 -5.60482844 55.77198854 -15.640625 55.94921875 C-22.50779591 55.84992176 -27.67351776 54.82995447 -33.078125 50.32421875 C-33.72136719 49.793125 -34.36460937 49.26203125 -35.02734375 48.71484375 C-40.6137836 43.60858007 -44.65569509 36.96491305 -45.3515625 29.3203125 C-45.64591656 19.00659899 -43.80235296 12.13875215 -36.828125 4.44921875 C-27.35949589 -4.07254745 -11.43442049 -6.31552295 0 0 Z " fill="#020202" transform="translate(746.078125,410.67578125)"/>
<path d="M0 0 C0.66 0.33 1.32 0.66 2 1 C-0.64 3.97 -3.28 6.94 -6 10 C-6.99 9.67 -7.98 9.34 -9 9 C-6.03 6.03 -3.06 3.06 0 0 Z " fill="#D4D4D4" transform="translate(700,398)"/>
<path d="M0 0 C0 3.59857954 -0.95830515 5.09451118 -3 8 C-3.66 8 -4.32 8 -5 8 C-3.375 2.25 -3.375 2.25 0 0 Z " fill="#CECFCE" transform="translate(691,409)"/>
</svg>
